<svg width="65" height="66" viewBox="0 0 65 66" fill="none" xmlns="http://www.w3.org/2000/svg">
<g filter="url(#filter0_d)">
<path d="M32.3763 58C46.9436 58 58.7526 45.9116 58.7526 31C58.7526 16.0884 46.9436 4 32.3763 4C17.809 4 6 16.0884 6 31C6 45.9116 17.809 58 32.3763 58Z" fill="#5672FF"/>
<path d="M57.1629 30.9999C57.1629 45.0384 46.0498 56.3898 32.3763 56.3898C18.7027 56.3898 7.5896 45.0384 7.5896 30.9999C7.5896 16.9615 18.7027 5.61005 32.3763 5.61005C46.0498 5.61005 57.1629 16.9615 57.1629 30.9999Z" stroke="#F7FAFF" stroke-width="3"/>
</g>
<path d="M30.7045 27.2675H33.775V31.9115H30.7045V27.2675Z" fill="white"/>
<path d="M44.0785 38.3255C44.074 38.3315 43.4425 38.834 42.2215 39.4055V32.6855C42.2215 29.699 39.8095 27.2675 36.847 27.2675H35.311V32.6855C35.311 33.113 34.9675 33.4595 34.543 33.4595H33.007V36.5555H33.775C35.893 36.5555 37.615 38.291 37.615 40.4255V40.7645C36.0205 41.0465 34.225 41.1995 32.2405 41.1995C29.947 41.1995 27.8605 40.991 25.9975 40.604L26.47 39.191C27.01 37.6145 28.4695 36.5555 30.106 36.5555H31.471V33.4595H29.938C29.5135 33.4595 29.17 33.113 29.17 32.6855V25.9505L25.873 22.0775C25.006 21.2 23.491 21.1985 22.621 22.0775L19.858 24.848C18.958 25.7555 18.958 27.233 19.858 28.1405C20.725 29.0165 22.252 29.021 23.128 28.136L23.8465 27.401C24.6985 30.197 23.3695 34.0385 22.1815 37.4705C21.9985 37.9985 21.6325 39.0845 21.6325 39.0845C20.8525 38.657 20.4985 38.3285 20.4985 38.3285C20.1985 38.0285 19.7125 38.027 19.4125 38.3285C19.1125 38.633 19.1125 39.1235 19.4125 39.4235C21.979 41.987 28.408 42.746 32.2405 42.746C35.926 42.746 42.556 42.0485 45.16 39.4235C45.46 39.1235 45.46 38.639 45.163 38.336C44.8675 38.0345 44.383 38.03 44.0785 38.3255V38.3255Z" fill="white"/>
<path d="M19.9495 22.625L21.5905 20.9795C22.285 20.2775 23.275 19.871 24.298 19.871C25.3225 19.871 26.3125 20.276 27.0115 20.984L29.9875 24.4775V22.13C29.9875 21.9245 29.9065 21.7265 29.7625 21.5825L28.0915 19.8965C27.079 18.8675 25.732 18.299 24.2965 18.2975L24.2815 18.296C22.852 18.296 21.505 18.8585 20.4925 19.88L19.402 20.978C19.102 21.281 19.102 21.77 19.402 22.073L19.9495 22.625V22.625ZM42.313 25.721C41.4925 25.721 40.75 26.051 40.198 26.582C42.3595 27.7595 43.849 30.038 43.849 32.6855V34.2335C43.849 34.661 44.1925 35.0075 44.617 35.0075C45.0415 35.0075 45.385 34.661 45.385 34.2335V28.8155C45.385 27.1085 44.0065 25.7195 42.313 25.7195V25.721Z" fill="white"/>
<defs>
<filter id="filter0_d" x="0" y="0" width="64.7526" height="66" filterUnits="userSpaceOnUse" color-interpolation-filters="sRGB">
<feFlood flood-opacity="0" result="BackgroundImageFix"/>
<feColorMatrix in="SourceAlpha" type="matrix" values="0 0 0 0 0 0 0 0 0 0 0 0 0 0 0 0 0 0 127 0"/>
<feOffset dy="2"/>
<feGaussianBlur stdDeviation="3"/>
<feColorMatrix type="matrix" values="0 0 0 0 0 0 0 0 0 0 0 0 0 0 0 0 0 0 0.048514 0"/>
<feBlend mode="normal" in2="BackgroundImageFix" result="effect1_dropShadow"/>
<feBlend mode="normal" in="SourceGraphic" in2="effect1_dropShadow" result="shape"/>
</filter>
</defs>
</svg>
