<svg width="65" height="66" viewBox="0 0 65 66" fill="none" xmlns="http://www.w3.org/2000/svg">
<g filter="url(#filter0_d)">
<path d="M32.3763 58C46.9436 58 58.7526 45.9116 58.7526 31C58.7526 16.0884 46.9436 4 32.3763 4C17.809 4 6 16.0884 6 31C6 45.9116 17.809 58 32.3763 58Z" fill="#22B347"/>
<path d="M57.1629 30.9999C57.1629 45.0384 46.0498 56.3898 32.3763 56.3898C18.7027 56.3898 7.5896 45.0384 7.5896 30.9999C7.5896 16.9615 18.7027 5.61005 32.3763 5.61005C46.0498 5.61005 57.1629 16.9615 57.1629 30.9999Z" stroke="#F7FAFF" stroke-width="3"/>
</g>
<path d="M34.3822 22.961C35.5906 22.961 36.5786 21.9359 36.5786 20.6817C36.5786 19.4275 35.5906 18.4024 34.3822 18.4024C33.1738 18.4024 32.1858 19.4275 32.1858 20.6817C32.1858 21.9359 33.1738 22.961 34.3822 22.961ZM40.9714 31.6574V29.3583C38.8084 29.3583 36.9376 28.2093 35.8853 26.5429L34.7735 24.7043C34.3649 24.0147 33.6047 23.6123 32.7863 23.6123C32.4941 23.6123 32.2019 23.6692 31.9097 23.7856L25.7713 26.2544V31.6562H28.1088V27.8057L30.1554 27.0009L28.3428 36.2532L22.6141 35.1612L22.1461 37.4034C22.1461 37.4034 30.3299 38.9548 30.3299 39.0129L31.4417 33.9553L33.9551 36.2545V43.1507H36.2951V34.4729L33.8956 32.1168L34.5976 28.6687C36.1168 30.5085 38.3974 31.6574 40.9701 31.6574H40.9714Z" fill="white"/>
<defs>
<filter id="filter0_d" x="0" y="0" width="64.7526" height="66" filterUnits="userSpaceOnUse" color-interpolation-filters="sRGB">
<feFlood flood-opacity="0" result="BackgroundImageFix"/>
<feColorMatrix in="SourceAlpha" type="matrix" values="0 0 0 0 0 0 0 0 0 0 0 0 0 0 0 0 0 0 127 0"/>
<feOffset dy="2"/>
<feGaussianBlur stdDeviation="3"/>
<feColorMatrix type="matrix" values="0 0 0 0 0 0 0 0 0 0 0 0 0 0 0 0 0 0 0.048514 0"/>
<feBlend mode="normal" in2="BackgroundImageFix" result="effect1_dropShadow"/>
<feBlend mode="normal" in="SourceGraphic" in2="effect1_dropShadow" result="shape"/>
</filter>
</defs>
</svg>
