<svg width="65" height="66" viewBox="0 0 65 66" fill="none" xmlns="http://www.w3.org/2000/svg">
<g filter="url(#filter0_d)">
<path d="M32.3763 58C46.9436 58 58.7526 45.9116 58.7526 31C58.7526 16.0884 46.9436 4 32.3763 4C17.809 4 6 16.0884 6 31C6 45.9116 17.809 58 32.3763 58Z" fill="#B43145"/>
<path d="M57.1629 30.9999C57.1629 45.0384 46.0498 56.3898 32.3763 56.3898C18.7027 56.3898 7.5896 45.0384 7.5896 30.9999C7.5896 16.9615 18.7027 5.61005 32.3763 5.61005C46.0498 5.61005 57.1629 16.9615 57.1629 30.9999Z" stroke="#F7FAFF" stroke-width="3"/>
</g>
<path d="M30.0553 42.9357C31.6744 42.9357 32.987 41.6129 32.987 39.9813C32.987 38.3496 31.6744 37.0269 30.0553 37.0269C28.4363 37.0269 27.1237 38.3496 27.1237 39.9813C27.1237 41.6129 28.4363 42.9357 30.0553 42.9357Z" fill="white"/>
<path d="M38.6101 37.0269C36.9915 37.0269 35.6799 38.3485 35.6799 39.9813C35.6799 41.6127 36.9915 42.9371 38.6101 42.9371C40.2301 42.9371 41.5417 41.6127 41.5417 39.9813C41.5417 38.3499 40.2287 37.0255 38.6101 37.0255V37.0269ZM43.6065 34.0114H28.3202L28.0218 32.2636H40.5839C40.9534 32.2636 41.2845 32.0362 41.4209 31.6909L44.4122 24.0925C44.5941 23.6278 44.3668 23.102 43.9063 22.9201C43.7998 22.8775 43.6875 22.8562 43.5738 22.8562H26.4658L25.7496 18.6953C25.6771 18.2548 25.2948 17.9365 24.8529 17.9422H21.4125C20.9137 17.9422 20.5144 18.3472 20.5144 18.8474C20.5144 19.3462 20.9166 19.7512 21.4111 19.7512H24.104L26.6761 35.0673C26.75 35.5078 27.1308 35.8261 27.5728 35.8204H43.6065C44.1039 35.8204 44.5046 35.4154 44.5046 34.9167C44.5046 34.4164 44.1025 34.0114 43.6065 34.0114Z" fill="white"/>
<defs>
<filter id="filter0_d" x="0" y="0" width="64.7526" height="66" filterUnits="userSpaceOnUse" color-interpolation-filters="sRGB">
<feFlood flood-opacity="0" result="BackgroundImageFix"/>
<feColorMatrix in="SourceAlpha" type="matrix" values="0 0 0 0 0 0 0 0 0 0 0 0 0 0 0 0 0 0 127 0"/>
<feOffset dy="2"/>
<feGaussianBlur stdDeviation="3"/>
<feColorMatrix type="matrix" values="0 0 0 0 0 0 0 0 0 0 0 0 0 0 0 0 0 0 0.048514 0"/>
<feBlend mode="normal" in2="BackgroundImageFix" result="effect1_dropShadow"/>
<feBlend mode="normal" in="SourceGraphic" in2="effect1_dropShadow" result="shape"/>
</filter>
</defs>
</svg>
