<svg width="65" height="66" viewBox="0 0 65 66" fill="none" xmlns="http://www.w3.org/2000/svg">
<g filter="url(#filter0_d)">
<path d="M32.3763 58C46.9436 58 58.7526 45.9116 58.7526 31C58.7526 16.0884 46.9436 4 32.3763 4C17.809 4 6 16.0884 6 31C6 45.9116 17.809 58 32.3763 58Z" fill="#5672FF"/>
<path d="M57.1629 30.9999C57.1629 45.0384 46.0498 56.3898 32.3762 56.3898C18.7027 56.3898 7.58957 45.0384 7.58957 30.9999C7.58957 16.9615 18.7027 5.61005 32.3762 5.61005C46.0498 5.61005 57.1629 16.9615 57.1629 30.9999Z" stroke="#F7FAFF" stroke-width="3"/>
</g>
<path d="M17.6573 29.6287H24.6119V33.738H17.6573V29.6287Z" fill="white"/>
<path d="M17.6573 26.1065V27.8676H24.6119V25.2258H18.5266C18.0465 25.2258 17.6573 25.6201 17.6573 26.1065Z" fill="white"/>
<path d="M17.6573 42.8372C17.6573 43.3234 18.0465 43.7178 18.5266 43.7178H20.2652V35.4993H17.6573V42.8372Z" fill="white"/>
<path d="M22.0039 35.4993H24.6119V43.7178H22.0039V35.4993Z" fill="white"/>
<path d="M46.3457 25.2258H40.2603V27.8676H47.215V26.1065C47.215 25.6201 46.8257 25.2258 46.3457 25.2258Z" fill="white"/>
<path d="M40.2603 29.6287H47.215V33.738H40.2603V29.6287Z" fill="white"/>
<path d="M40.2603 42.8372V43.7178H42.8684V35.4993H40.2603V42.8372Z" fill="white"/>
<path d="M44.607 43.7178H46.3456C46.8257 43.7178 47.215 43.3234 47.215 42.8372V35.4993H44.607V43.7178Z" fill="white"/>
<path d="M33.3055 37.7051V43.7176H35.0442V40.1954C35.0442 39.0474 34.3174 38.0687 33.3055 37.7051Z" fill="white"/>
<path d="M29.8282 40.1954V43.7176H31.5668V37.7051C30.555 38.0687 29.8282 39.0474 29.8282 40.1954Z" fill="white"/>
<path fill-rule="evenodd" clip-rule="evenodd" d="M38.0579 23.1126L33.3055 19.5022V18.064H33.8851C35.7997 18.064 37.358 16.4883 37.3625 14.55C37.3635 14.0611 36.9756 13.6611 36.493 13.6611H32.4362C31.9561 13.6611 31.5668 14.0554 31.5668 14.5417V18.064V19.5022L26.8144 23.1126C26.5226 23.3342 26.3508 23.6822 26.3508 24.0518V43.7178H28.0895V40.1956C28.0895 37.7677 30.0394 35.7927 32.4362 35.7927C34.8329 35.7927 36.7829 37.7677 36.7829 40.1956V43.7178H38.5215V24.0518C38.5215 23.6822 38.3497 23.3342 38.0579 23.1126ZM29.8282 32.7107C29.8282 33.197 29.4389 33.5913 28.9589 33.5913C28.4787 33.5913 28.0895 33.197 28.0895 32.7107V30.9496C28.0895 30.4632 28.4787 30.0691 28.9589 30.0691C29.4389 30.0691 29.8282 30.4632 29.8282 30.9496V32.7107ZM32.4362 33.5913C32.9162 33.5913 33.3055 33.197 33.3055 32.7107V30.9496C33.3055 30.4632 32.9162 30.0691 32.4362 30.0691C31.9561 30.0691 31.5668 30.4632 31.5668 30.9496V32.7107C31.5668 33.197 31.9561 33.5913 32.4362 33.5913ZM32.4362 28.4546C30.9982 28.4546 29.8282 27.2696 29.8282 25.8129C29.8282 24.3564 30.9982 23.1713 32.4362 23.1713C33.8743 23.1713 35.0441 24.3564 35.0441 25.8129C35.0441 27.2696 33.8743 28.4546 32.4362 28.4546ZM35.9136 33.5913C36.3936 33.5913 36.7829 33.197 36.7829 32.7107V30.9496C36.7829 30.4632 36.3936 30.0691 35.9136 30.0691C35.4334 30.0691 35.0441 30.4632 35.0441 30.9496V32.7107C35.0441 33.197 35.4334 33.5913 35.9136 33.5913Z" fill="white"/>
<path d="M32.4362 26.6935C32.9164 26.6935 33.3055 26.2993 33.3055 25.813C33.3055 25.3267 32.9164 24.9324 32.4362 24.9324C31.9561 24.9324 31.5669 25.3267 31.5669 25.813C31.5669 26.2993 31.9561 26.6935 32.4362 26.6935Z" fill="white"/>
<defs>
<filter id="filter0_d" x="0" y="0" width="64.7526" height="66" filterUnits="userSpaceOnUse" color-interpolation-filters="sRGB">
<feFlood flood-opacity="0" result="BackgroundImageFix"/>
<feColorMatrix in="SourceAlpha" type="matrix" values="0 0 0 0 0 0 0 0 0 0 0 0 0 0 0 0 0 0 127 0"/>
<feOffset dy="2"/>
<feGaussianBlur stdDeviation="3"/>
<feColorMatrix type="matrix" values="0 0 0 0 0 0 0 0 0 0 0 0 0 0 0 0 0 0 0.048514 0"/>
<feBlend mode="normal" in2="BackgroundImageFix" result="effect1_dropShadow"/>
<feBlend mode="normal" in="SourceGraphic" in2="effect1_dropShadow" result="shape"/>
</filter>
</defs>
</svg>
