<svg width="52" height="68" viewBox="0 0 52 68" fill="none" xmlns="http://www.w3.org/2000/svg">
<g filter="url(#filter0_d)">
<path d="M43.8 3H8.2C6.43269 3 5 4.43269 5 6.2V57.218C5 58.9853 6.43269 60.418 8.2 60.418H43.8C45.5673 60.418 47 58.9853 47 57.218V6.2C47 4.43269 45.5673 3 43.8 3Z" fill="white"/>
</g>
<path d="M42.6 4.19995H9.40001C7.6327 4.19995 6.20001 5.63264 6.20001 7.39995V56.018C6.20001 57.7853 7.6327 59.2179 9.40001 59.2179H42.6C44.3673 59.2179 45.8 57.7853 45.8 56.018V7.39995C45.8 5.63264 44.3673 4.19995 42.6 4.19995Z" fill="#DD7745" stroke="white" stroke-width="2.4"/>
<path fill-rule="evenodd" clip-rule="evenodd" d="M26 65L21.154 59.418H30.846L26 65Z" fill="white"/>
<path fill-rule="evenodd" clip-rule="evenodd" d="M35.6924 18.8513C35.6924 20.3658 34.4489 21.5935 32.9151 21.5935C31.3813 21.5935 30.1378 20.3658 30.1378 18.8513C30.1378 17.3368 31.3813 16.1091 32.9151 16.1091C34.4489 16.1091 35.6924 17.3368 35.6924 18.8513Z" fill="white"/>
<path fill-rule="evenodd" clip-rule="evenodd" d="M30.6454 24.3356C30.8205 24.2996 34.1746 31.1573 31.4656 36.4586C31.0538 37.2644 30.2811 38.2406 28.7356 40.193C26.4381 43.0955 25.3514 43.8956 24.1933 45.4455C23.0012 47.041 21.5079 49.5557 20.6145 53.3243C19.4818 49.8326 19.7141 47.1867 20.3736 45.2128C21.1143 42.996 22.0254 42.7298 26.8774 36.4198C29.7095 32.7367 30.7762 30.9983 31.0756 28.591C31.3931 26.0377 30.5587 24.3538 30.6454 24.3356Z" fill="white"/>
<path fill-rule="evenodd" clip-rule="evenodd" d="M13.077 13.3669C14.6787 15.6908 16.3573 16.8155 17.6298 17.4131C18.608 17.8726 18.8663 17.7953 20.8782 18.6044C23.1134 19.5035 24.2217 19.9645 25.3257 20.8261C25.9829 21.339 27.4759 22.5043 28.1817 24.604C28.8442 26.5751 28.4545 28.3033 28.2416 29.0365C28.0239 28.0447 27.5198 26.489 26.2631 25.0441C25.3279 23.9686 24.3331 23.3654 23.8269 23.0639C22.7329 22.4122 22.0655 22.2731 20.9163 21.8243C19.4193 21.2395 17.9649 20.6714 16.5997 19.5221C14.1744 17.4805 13.405 14.762 13.2314 14.0807C13.157 13.789 13.1082 13.5421 13.077 13.3669Z" fill="white"/>
<defs>
<filter id="filter0_d" x="0" y="0" width="52" height="67.418" filterUnits="userSpaceOnUse" color-interpolation-filters="sRGB">
<feFlood flood-opacity="0" result="BackgroundImageFix"/>
<feColorMatrix in="SourceAlpha" type="matrix" values="0 0 0 0 0 0 0 0 0 0 0 0 0 0 0 0 0 0 127 0" result="hardAlpha"/>
<feOffset dy="2"/>
<feGaussianBlur stdDeviation="2.5"/>
<feColorMatrix type="matrix" values="0 0 0 0 0 0 0 0 0 0 0 0 0 0 0 0 0 0 0.048514 0"/>
<feBlend mode="normal" in2="BackgroundImageFix" result="effect1_dropShadow"/>
<feBlend mode="normal" in="SourceGraphic" in2="effect1_dropShadow" result="shape"/>
</filter>
</defs>
</svg>
