<svg xmlns="http://www.w3.org/2000/svg" xmlns:xlink="http://www.w3.org/1999/xlink" width="52" height="68" viewBox="0 0 52 68">
  <defs>
    <rect id="map-pin-senim-b" width="42" height="57.418" x="0" y="0" rx="3.2"/>
    <filter id="map-pin-senim-a" width="140.5%" height="129.6%" x="-20.2%" y="-11.3%" filterUnits="objectBoundingBox">
      <feOffset dy="2" in="SourceAlpha" result="shadowOffsetOuter1"/>
      <feGaussianBlur in="shadowOffsetOuter1" result="shadowBlurOuter1" stdDeviation="2.5"/>
      <feComposite in="shadowBlurOuter1" in2="SourceAlpha" operator="out" result="shadowBlurOuter1"/>
      <feColorMatrix in="shadowBlurOuter1" values="0 0 0 0 0   0 0 0 0 0   0 0 0 0 0  0 0 0 0.048513986 0"/>
    </filter>
    <filter id="map-pin-senim-c">
      <feColorMatrix in="SourceGraphic" values="0 0 0 0 1.000000 0 0 0 0 1.000000 0 0 0 0 1.000000 0 0 0 1.000000 0"/>
    </filter>
  </defs>
  <g fill="none" fill-rule="evenodd" transform="translate(5 3)">
    <use fill="#000" filter="url(#map-pin-senim-a)" xlink:href="#map-pin-senim-b"/>
    <rect width="39.6" height="55.018" x="1.2" y="1.2" fill="#EFBD42" stroke="#FFF" stroke-linejoin="square" stroke-width="2.4" rx="3.2"/>
    <polygon fill="#F7FCFF" points="21 56.418 25.846 62 16.154 62" transform="rotate(-180 21 59.209)"/>
    <g filter="url(#map-pin-senim-c)">
      <g transform="translate(8.077 10.367)">
        <path fill="#E80E18" d="M22.6153846,5.48438326 C22.6153846,6.99882798 21.371916,8.22651566 19.83807,8.22651566 C18.3042241,8.22651566 17.0607287,6.99882798 17.0607287,5.48438326 C17.0607287,3.96985956 18.3042241,2.74217189 19.83807,2.74217189 C21.371916,2.74217189 22.6153846,3.96985956 22.6153846,5.48438326"/>
        <path fill="#F88312" d="M17.5684222,10.9686875 C17.743453,10.9326608 21.0975872,17.7904291 18.3885731,23.0916701 C17.9767633,23.8974995 17.2040728,24.8736702 15.6585817,26.8260647 C13.361047,29.7285667 12.2743306,30.5287314 11.1162584,32.0786101 C9.9241325,33.6741259 8.43083683,36.1888191 7.53748571,39.9573618 C6.40479545,36.4656468 6.63703206,33.8197603 7.2965774,31.8459036 C8.03730646,29.6291279 8.94835887,29.3629382 13.800386,23.0529211 C16.6324558,19.3698017 17.6992136,17.631444 17.9985389,15.2240883 C18.3160611,12.6707791 17.48165,10.9868614 17.5684222,10.9686875"/>
        <path fill="#E80E18" d="M0,0 C1.6016996,2.32386717 3.28028853,3.44852841 4.55276892,4.04617374 C5.53100833,4.50565125 5.78930309,4.42832467 7.80116629,5.2374976 C10.0363984,6.13659294 11.1447139,6.59756444 12.2486604,7.45912986 C12.9058431,7.97208172 14.398893,9.13733813 15.1046842,11.2370561 C15.7671515,13.2081111 15.3774987,14.9363936 15.1645945,15.6695536 C14.9468766,14.6777797 14.4427401,13.1220267 13.1861137,11.6771118 C12.2508842,10.6016748 11.2561105,9.99849142 10.7498287,9.69693837 C9.65590215,9.04525202 8.98846409,8.90615691 7.83928394,8.45734335 C6.34230974,7.87255144 4.88790068,7.30450246 3.52262463,6.15513896 C1.09740609,4.11355759 0.327937287,1.3950982 0.154328046,0.713712468 C0.0800025706,0.422024869 0.031210944,0.175156806 0,0"/>
      </g>
    </g>
  </g>
</svg>
